<svg width="86" height="51" viewBox="0 0 86 51" fill="none" xmlns="http://www.w3.org/2000/svg">
<rect x="0.5" y="4.5" width="85" height="46" stroke="white"/>
<line x1="57.5" y1="7" x2="57.5" y2="32" stroke="white"/>
<line x1="26.5" y1="7" x2="26.5" y2="32" stroke="white"/>
<path d="M4.81818 31V7.72727H12.6818C14.5076 7.72727 16 8.05682 17.1591 8.71591C18.3258 9.36742 19.1894 10.25 19.75 11.3636C20.3106 12.4773 20.5909 13.7197 20.5909 15.0909C20.5909 16.4621 20.3106 17.7083 19.75 18.8295C19.197 19.9508 18.3409 20.8447 17.1818 21.5114C16.0227 22.1705 14.5379 22.5 12.7273 22.5H7.09091V20H12.6364C13.8864 20 14.8902 19.7841 15.6477 19.3523C16.4053 18.9205 16.9545 18.3371 17.2955 17.6023C17.6439 16.8598 17.8182 16.0227 17.8182 15.0909C17.8182 14.1591 17.6439 13.3258 17.2955 12.5909C16.9545 11.8561 16.4015 11.2803 15.6364 10.8636C14.8712 10.4394 13.8561 10.2273 12.5909 10.2273H7.63636V31H4.81818ZM40.358 31.3182C38.8277 31.3182 37.5095 31.0379 36.4034 30.4773C35.2973 29.9167 34.4451 29.1477 33.8466 28.1705C33.2481 27.1932 32.9489 26.0758 32.9489 24.8182C32.9489 23.8485 33.1534 22.9886 33.5625 22.2386C33.9792 21.4811 34.5511 20.7803 35.2784 20.1364C36.0133 19.4848 36.858 18.8333 37.8125 18.1818L41.1761 15.6818C41.8352 15.25 42.3617 14.7879 42.7557 14.2955C43.1572 13.803 43.358 13.1591 43.358 12.3636C43.358 11.7727 43.0966 11.2008 42.5739 10.6477C42.0587 10.0947 41.3807 9.81818 40.5398 9.81818C39.9489 9.81818 39.4261 9.9697 38.9716 10.2727C38.5246 10.5682 38.1723 10.947 37.9148 11.4091C37.6648 11.8636 37.5398 12.3333 37.5398 12.8182C37.5398 13.3636 37.6875 13.9167 37.983 14.4773C38.286 15.0303 38.6686 15.5985 39.1307 16.1818C39.6004 16.7576 40.0852 17.3485 40.5852 17.9545L51.267 31H48.0398L39.2216 20.3636C38.4034 19.3788 37.661 18.4848 36.9943 17.6818C36.3277 16.8788 35.7973 16.0871 35.4034 15.3068C35.0095 14.5265 34.8125 13.6818 34.8125 12.7727C34.8125 11.7273 35.0436 10.8106 35.5057 10.0227C35.9754 9.22727 36.6307 8.60985 37.4716 8.17045C38.3201 7.72348 39.3125 7.5 40.4489 7.5C41.6155 7.5 42.6193 7.72727 43.4602 8.18182C44.3011 8.62879 44.9489 9.22348 45.4034 9.96591C45.858 10.7008 46.0852 11.5 46.0852 12.3636C46.0852 13.4773 45.8087 14.4432 45.2557 15.2614C44.7027 16.0795 43.9489 16.8409 42.9943 17.5455L38.358 21C37.3125 21.7727 36.6042 22.5227 36.233 23.25C35.8617 23.9773 35.6761 24.5 35.6761 24.8182C35.6761 25.5455 35.8655 26.2235 36.2443 26.8523C36.6231 27.4811 37.1572 27.9886 37.8466 28.375C38.536 28.7614 39.3428 28.9545 40.267 28.9545C41.1458 28.9545 42.0019 28.7689 42.8352 28.3977C43.6686 28.0189 44.4223 27.4735 45.0966 26.7614C45.7784 26.0492 46.3163 25.1932 46.7102 24.1932C47.1117 23.1932 47.3125 22.0682 47.3125 20.8182H49.9034C49.9034 22.3636 49.7254 23.625 49.3693 24.6023C49.0133 25.5795 48.6117 26.3447 48.1648 26.8977C47.7178 27.4508 47.358 27.8636 47.0852 28.1364C46.9943 28.25 46.911 28.3636 46.8352 28.4773C46.7595 28.5909 46.6761 28.7045 46.5852 28.8182C45.8352 29.6591 44.8883 30.2879 43.7443 30.7045C42.6004 31.1136 41.4716 31.3182 40.358 31.3182ZM70.7812 31H63.5994V7.72727H71.0994C73.357 7.72727 75.2888 8.19318 76.8949 9.125C78.5009 10.0492 79.732 11.3788 80.5881 13.1136C81.4441 14.8409 81.8722 16.9091 81.8722 19.3182C81.8722 21.7424 81.4403 23.8295 80.5767 25.5795C79.7131 27.322 78.4555 28.6629 76.804 29.6023C75.1525 30.5341 73.1449 31 70.7812 31ZM66.4176 28.5H70.5994C72.5237 28.5 74.1184 28.1288 75.3835 27.3864C76.6487 26.6439 77.5919 25.5871 78.2131 24.2159C78.8343 22.8447 79.1449 21.2121 79.1449 19.3182C79.1449 17.4394 78.8381 15.822 78.2244 14.4659C77.6108 13.1023 76.6941 12.0568 75.4744 11.3295C74.2547 10.5947 72.7358 10.2273 70.9176 10.2273H66.4176V28.5Z" fill="white"/>
<path d="M6.17614 45.8049C5.46023 45.8049 4.84375 45.6359 4.3267 45.2978C3.80966 44.9597 3.41193 44.4941 3.13352 43.9008C2.85511 43.3075 2.71591 42.6297 2.71591 41.8674C2.71591 41.0918 2.85843 40.4074 3.14347 39.8141C3.43182 39.2175 3.83286 38.7519 4.34659 38.4171C4.86364 38.0791 5.46686 37.91 6.15625 37.91C6.69318 37.91 7.17708 38.0094 7.60795 38.2083C8.03883 38.4072 8.39181 38.6856 8.6669 39.0435C8.942 39.4015 9.11269 39.8191 9.17898 40.2964H8.00568C7.91619 39.9484 7.71733 39.6401 7.40909 39.3717C7.10417 39.0999 6.69318 38.964 6.17614 38.964C5.71875 38.964 5.31771 39.0833 4.97301 39.3219C4.63163 39.5573 4.36482 39.8904 4.17259 40.3212C3.98366 40.7488 3.8892 41.2509 3.8892 41.8276C3.8892 42.4176 3.98201 42.9313 4.16761 43.3688C4.35653 43.8063 4.62169 44.146 4.96307 44.388C5.30777 44.63 5.71212 44.7509 6.17614 44.7509C6.48106 44.7509 6.75781 44.6979 7.00639 44.5918C7.25497 44.4858 7.46544 44.3333 7.63778 44.1344C7.81013 43.9356 7.93277 43.6969 8.00568 43.4185H9.17898C9.11269 43.8693 8.94863 44.2753 8.68679 44.6366C8.42827 44.9945 8.08523 45.2796 7.65767 45.4917C7.23343 45.7005 6.73958 45.8049 6.17614 45.8049ZM16.005 35.464V45.6458H14.8317V35.464H16.005ZM25.1937 45.8049C24.5043 45.8049 23.8994 45.6408 23.3791 45.3127C22.862 44.9846 22.4577 44.5255 22.166 43.9356C21.8777 43.3456 21.7335 42.6562 21.7335 41.8674C21.7335 41.0719 21.8777 40.3776 22.166 39.7843C22.4577 39.191 22.862 38.7303 23.3791 38.4022C23.8994 38.0741 24.5043 37.91 25.1937 37.91C25.8831 37.91 26.4863 38.0741 27.0034 38.4022C27.5237 38.7303 27.9281 39.191 28.2164 39.7843C28.5081 40.3776 28.6539 41.0719 28.6539 41.8674C28.6539 42.6562 28.5081 43.3456 28.2164 43.9356C27.9281 44.5255 27.5237 44.9846 27.0034 45.3127C26.4863 45.6408 25.8831 45.8049 25.1937 45.8049ZM25.1937 44.7509C25.7174 44.7509 26.1483 44.6167 26.4863 44.3482C26.8244 44.0798 27.0746 43.7268 27.237 43.2893C27.3994 42.8518 27.4806 42.3778 27.4806 41.8674C27.4806 41.357 27.3994 40.8814 27.237 40.4406C27.0746 39.9997 26.8244 39.6434 26.4863 39.3717C26.1483 39.0999 25.7174 38.964 25.1937 38.964C24.67 38.964 24.2392 39.0999 23.9011 39.3717C23.563 39.6434 23.3128 39.9997 23.1504 40.4406C22.988 40.8814 22.9068 41.357 22.9068 41.8674C22.9068 42.3778 22.988 42.8518 23.1504 43.2893C23.3128 43.7268 23.563 44.0798 23.9011 44.3482C24.2392 44.6167 24.67 44.7509 25.1937 44.7509ZM37.7035 38.0094V39.0038H33.7461V38.0094H37.7035ZM34.8995 36.1799H36.0728V43.4583C36.0728 43.7898 36.1209 44.0383 36.217 44.2041C36.3164 44.3665 36.4424 44.4758 36.5948 44.5322C36.7506 44.5852 36.9147 44.6117 37.087 44.6117C37.2163 44.6117 37.3223 44.6051 37.4052 44.5918C37.488 44.5753 37.5543 44.562 37.604 44.5521L37.8427 45.606C37.7631 45.6359 37.6521 45.6657 37.5096 45.6955C37.3671 45.7287 37.1864 45.7452 36.9677 45.7452C36.6362 45.7452 36.3114 45.674 35.9933 45.5315C35.6784 45.3889 35.4165 45.1719 35.2077 44.8802C35.0022 44.5885 34.8995 44.2206 34.8995 43.7765V36.1799ZM44.5792 41.0521V45.6458H43.4059V35.464H44.5792V39.2026H44.6786C44.8576 38.8082 45.1261 38.495 45.484 38.263C45.8453 38.0277 46.3259 37.91 46.9258 37.91C47.4461 37.91 47.9019 38.0144 48.293 38.2232C48.6841 38.4287 48.9873 38.7452 49.2028 39.1728C49.4215 39.597 49.5309 40.1373 49.5309 40.7935V45.6458H48.3576V40.8731C48.3576 40.2666 48.2002 39.7976 47.8853 39.4661C47.5737 39.1314 47.1412 38.964 46.5877 38.964C46.2032 38.964 45.8585 39.0452 45.5536 39.2076C45.252 39.37 45.0134 39.607 44.8377 39.9185C44.6654 40.2301 44.5792 40.6079 44.5792 41.0521ZM55.6149 45.6458V38.0094H56.7882V45.6458H55.6149ZM56.2115 36.7367C55.9828 36.7367 55.7856 36.6588 55.6199 36.5031C55.4574 36.3473 55.3762 36.16 55.3762 35.9413C55.3762 35.7225 55.4574 35.5353 55.6199 35.3795C55.7856 35.2237 55.9828 35.1458 56.2115 35.1458C56.4402 35.1458 56.6357 35.2237 56.7981 35.3795C56.9638 35.5353 57.0467 35.7225 57.0467 35.9413C57.0467 36.16 56.9638 36.3473 56.7981 36.5031C56.6357 36.6588 56.4402 36.7367 56.2115 36.7367ZM64.0479 41.0521V45.6458H62.8746V38.0094H64.0082V39.2026H64.1076C64.2866 38.8148 64.5584 38.5033 64.9229 38.268C65.2875 38.0293 65.7582 37.91 66.3349 37.91C66.8519 37.91 67.3043 38.0161 67.6921 38.2282C68.0799 38.437 68.3815 38.7552 68.5969 39.1827C68.8124 39.607 68.9201 40.1439 68.9201 40.7935V45.6458H67.7468V40.8731C67.7468 40.2732 67.591 39.8059 67.2795 39.4711C66.9679 39.133 66.5404 38.964 65.9968 38.964C65.6223 38.964 65.2875 39.0452 64.9925 39.2076C64.7009 39.37 64.4705 39.607 64.3015 39.9185C64.1325 40.2301 64.0479 40.6079 64.0479 41.0521ZM78.084 48.6685C77.5172 48.6685 77.03 48.5956 76.6223 48.4498C76.2147 48.3073 75.8749 48.1184 75.6032 47.883C75.3347 47.651 75.1209 47.4024 74.9618 47.1373L75.8965 46.481C76.0025 46.6202 76.1368 46.7793 76.2992 46.9583C76.4616 47.1406 76.6837 47.298 76.9654 47.4306C77.2504 47.5665 77.6233 47.6344 78.084 47.6344C78.7005 47.6344 79.2092 47.4853 79.6103 47.187C80.0113 46.8887 80.2118 46.4214 80.2118 45.785V44.2339H80.1124C80.0262 44.3731 79.9036 44.5454 79.7445 44.7509C79.5887 44.9531 79.3633 45.1337 79.0684 45.2928C78.7767 45.4486 78.3823 45.5265 77.8851 45.5265C77.2686 45.5265 76.7151 45.3807 76.2246 45.089C75.7374 44.7973 75.3513 44.3731 75.0662 43.8163C74.7845 43.2594 74.6436 42.5833 74.6436 41.7879C74.6436 41.0057 74.7812 40.3246 75.0563 39.7445C75.3314 39.1612 75.7142 38.7104 76.2047 38.3923C76.6953 38.0708 77.262 37.91 77.905 37.91C78.4022 37.91 78.7966 37.9929 79.0882 38.1586C79.3832 38.321 79.6086 38.5066 79.7644 38.7154C79.9235 38.9209 80.0461 39.0899 80.1323 39.2225H80.2516V38.0094H81.3851V45.8646C81.3851 46.5208 81.236 47.0544 80.9377 47.4654C80.6427 47.8797 80.245 48.183 79.7445 48.3752C79.2473 48.5708 78.6938 48.6685 78.084 48.6685ZM78.0442 44.4725C78.5149 44.4725 78.9126 44.3648 79.2374 44.1494C79.5622 43.9339 79.8091 43.624 79.9782 43.2197C80.1472 42.8153 80.2317 42.3314 80.2317 41.768C80.2317 41.2178 80.1489 40.7322 79.9831 40.3113C79.8174 39.8904 79.5721 39.5606 79.2473 39.3219C78.9225 39.0833 78.5215 38.964 78.0442 38.964C77.5471 38.964 77.1328 39.0899 76.8013 39.3418C76.4732 39.5937 76.2263 39.9318 76.0605 40.356C75.8981 40.7803 75.8169 41.2509 75.8169 41.768C75.8169 42.2983 75.8998 42.7673 76.0655 43.1749C76.2346 43.5793 76.4831 43.8975 76.8113 44.1295C77.1427 44.3582 77.5537 44.4725 78.0442 44.4725Z" fill="white"/>
</svg>
